<svg width="32" height="20" viewBox="0 0 32 20" version="1.1" xmlns="http://www.w3.org/2000/svg" xmlns:xlink="http://www.w3.org/1999/xlink">
<title>icon-crm1</title>
<desc>Created using Figma</desc>
<g id="Canvas" transform="translate(670 2285)">
<g id="icon-crm1">
<use xlink:href="#path0_fill" transform="translate(-670 -2285)" fill="#00CAFC"/>
</g>
</g>
<defs>
<path id="path0_fill" fill-rule="evenodd" d="M 31.9746 13.1077C 31.8126 10.8962 30.901 8.41699 29.3919 6.12598C 26.1509 1.19727 21.3198 -1.22241 18.4028 0.612061C 15.486 2.45679 15.7493 7.75244 18.9903 12.6912C 21.5021 16.5093 24.9558 18.8198 27.741 18.8198C 28.5614 18.8198 29.3109 18.6216 29.9794 18.2051C 31.4378 17.2827 32.1468 15.468 31.9746 13.1077ZM 23.5986 18.6514C 19.8006 16.6282 15.7898 11.5803 15.486 5.8584C 15.4657 5.47144 15.1213 5.19385 14.7264 5.19385C 14.3314 5.21362 14.0275 5.55078 14.0478 5.93774C 14.0495 5.9646 14.0515 5.99121 14.0537 6.01758L 14.0611 6.09961L 14.068 6.17065L 14.0787 6.28247C 14.0824 6.32251 14.0857 6.36279 14.0883 6.40381C 13.0654 6.33423 12.0019 6.28467 10.908 6.28467C 9.79395 6.28467 0 6.36401 0 9.22021C 0 12.0762 9.79395 12.1555 10.908 12.1555C 12.5387 12.1555 14.1592 12.0664 15.6176 11.9077C 15.881 12.4631 16.1544 12.9985 16.4684 13.5142C 14.8276 13.7522 12.8932 13.8911 10.908 13.8911C 5.15521 13.8911 1.73193 12.8696 1.43817 12.3638C 1.43817 11.9771 1.11407 11.6597 0.719116 11.6597C 0.324097 11.6597 0 11.9771 0 12.3638C 0 15.22 9.79395 15.2993 10.908 15.2993C 13.2578 15.2993 15.4758 15.1309 17.3293 14.8135C 17.704 15.3291 18.0991 15.835 18.5042 16.301C 16.6608 16.7769 13.8857 17.0745 10.908 17.0745C 5.15521 17.0745 1.73193 16.053 1.43817 15.5474C 1.43817 15.1604 1.11407 14.8433 0.719116 14.8433C 0.324097 14.8433 0 15.1604 0 15.5474C 0 18.4033 9.79395 18.4827 10.908 18.4827C 14.4427 18.4827 17.623 18.0959 19.598 17.4514C 20.6615 18.4729 21.7958 19.3157 22.9099 19.9106C 23.0214 19.9702 23.1328 20 23.2543 20C 23.5075 20 23.7607 19.8711 23.8822 19.6331C 24.0746 19.2563 23.943 18.8298 23.5986 18.6514ZM 22.4744 5.48145C 22.1098 5.34253 21.6844 5.52124 21.5426 5.87817L 20.6615 8.07983C 20.5197 8.43677 20.702 8.85327 21.0666 8.99219C 21.123 9.0127 21.1844 9.02856 21.2472 9.03638C 21.2659 9.03882 21.2847 9.04028 21.3036 9.04102L 21.33 9.04175C 21.6135 9.04175 21.887 8.87305 21.9984 8.59546L 22.8795 6.3938C 23.0214 6.03687 22.8391 5.62036 22.4744 5.48145ZM 25.6445 6.40381C 25.2698 6.26489 24.8546 6.4436 24.7128 6.80054L 22.7581 11.6797C 22.6162 12.0366 22.7985 12.4531 23.1631 12.592C 23.1985 12.605 23.2357 12.616 23.274 12.6243C 23.3237 12.6353 23.3751 12.6416 23.4265 12.6416C 23.7101 12.6416 23.9835 12.4731 24.095 12.1953L 26.0497 7.31616C 26.1915 6.95923 26.0092 6.55249 25.6445 6.40381ZM 26.7383 10.8069C 26.8801 10.45 27.3055 10.2712 27.6702 10.4102C 28.0449 10.5491 28.2272 10.9556 28.0753 11.3225L 27.1942 13.5242C 27.0827 13.8018 26.8093 13.9705 26.5257 13.9705C 26.4345 13.9705 26.3434 13.9504 26.2623 13.9209C 25.8977 13.782 25.7154 13.3655 25.8572 13.0085L 26.7383 10.8069ZM 1.46857 9.21045C 1.97498 9.7854 5.36792 10.7375 10.908 10.7375C 12.3361 10.7375 13.7439 10.6682 15.0302 10.5393C 14.7061 9.6665 14.4529 8.75415 14.2807 7.82202C 13.2071 7.73267 12.0728 7.68311 10.908 7.68311C 5.36792 7.68311 1.97498 8.63525 1.46857 9.21045ZM 20.1956 11.9275C 22.9099 16.053 27.032 18.3835 29.1995 17.0151C 30.2022 16.3901 30.6782 15.0315 30.5466 13.2068C 30.4047 11.2234 29.5641 8.98218 28.1867 6.88965C 25.4724 2.75439 21.3502 0.423828 19.1827 1.79224C 17.0153 3.16089 17.4812 7.802 20.1956 11.9275Z"/>
</defs>
</svg>
