<svg width="28" height="27" viewBox="0 0 28 27" version="1.1" xmlns="http://www.w3.org/2000/svg" xmlns:xlink="http://www.w3.org/1999/xlink">
<title>icon-crm2</title>
<desc>Created using Figma</desc>
<g id="Canvas" transform="translate(370 2289)">
<g id="icon-crm2">
<use xlink:href="#path0_fill" transform="translate(-370 -2289)" fill="#00CAFC"/>
</g>
</g>
<defs>
<path id="path0_fill" fill-rule="evenodd" d="M 14.685 1.28418L 24.1661 1.28418C 26.2753 1.28418 28 3.0166 28 5.15698L 28 18.3484C 28 20.479 26.2851 22.2212 24.1661 22.2212L 20.7856 22.2212L 21.9388 26.094C 22.0472 26.4624 21.8402 26.8606 21.4657 26.9702C 21.4066 26.99 21.3376 27 21.2686 27C 20.963 27 20.6871 26.8008 20.5984 26.4922L 19.327 22.2112L 8.673 22.2112L 7.41147 26.4922C 7.32278 26.8008 7.04681 27 6.7413 27C 6.68216 27 6.61316 26.99 6.54419 26.9702C 6.16965 26.8606 5.96268 26.4724 6.07111 26.094L 7.21436 22.2112L 3.83386 22.2112C 1.72473 22.2112 0 20.479 0 18.3384L 0 5.15698C 0 3.02661 1.71487 1.28418 3.83386 1.28418L 13.2855 1.28418L 13.2855 0.706787C 13.2855 0.318604 13.6008 0 13.9852 0C 14.3696 0 14.685 0.318604 14.685 0.706787L 14.685 1.28418ZM 24.1661 20.7976C 25.5065 20.7976 26.6005 19.6924 26.6005 18.3384L 26.5906 18.3384L 26.5906 5.15698C 26.5906 3.80298 25.4966 2.698 24.1563 2.698L 3.83386 2.698C 2.4935 2.698 1.39951 3.80298 1.39951 5.15698L 1.39951 18.3384C 1.39951 19.6924 2.4935 20.7976 3.83386 20.7976L 24.1661 20.7976ZM 13.9852 22.7488C 13.6008 22.7488 13.2855 23.0674 13.2855 23.4556L 13.2855 26.283C 13.2855 26.6714 13.6008 26.99 13.9852 26.99C 14.3696 26.99 14.685 26.6714 14.685 26.283L 14.685 23.4556C 14.685 23.0674 14.3696 22.7488 13.9852 22.7488ZM 19.0215 10.1748L 23.2791 5.27661C 23.5354 4.98779 23.9789 4.95801 24.2943 5.2168C 24.5801 5.47583 24.6096 5.92383 24.3534 6.2124L 19.6325 11.6384C 19.5044 11.7778 19.3369 11.8674 19.1496 11.8772C 18.9722 11.8872 18.7849 11.8274 18.6469 11.698L 17.1095 10.3242L 11.8465 16.7656C 11.7184 16.9348 11.5213 17.0244 11.3143 17.0244C 11.1074 17.0244 10.9102 16.9248 10.7821 16.7656L 8.37732 13.8486L 4.76028 18.1992C 4.62231 18.3584 4.4252 18.448 4.22809 18.448C 4.06055 18.448 3.90283 18.3884 3.77472 18.2788C 3.47903 18.03 3.43964 17.582 3.686 17.2832L 7.83527 12.2854C 7.96338 12.1262 8.16049 12.0366 8.36746 12.0366C 8.57443 12.0366 8.77155 12.1362 8.89969 12.2954L 11.2946 15.2124L 16.4787 8.87061C 16.5273 8.80908 16.5859 8.75781 16.6511 8.71729C 16.7445 8.65942 16.8513 8.62354 16.9616 8.61182C 17.139 8.60181 17.3362 8.66162 17.4741 8.79102L 19.0215 10.1748Z"/>
</defs>
</svg>
