<svg width="29" height="28" viewBox="0 0 29 28" version="1.1" xmlns="http://www.w3.org/2000/svg" xmlns:xlink="http://www.w3.org/1999/xlink">
<title>icon-crm3</title>
<desc>Created using Figma</desc>
<g id="Canvas" transform="translate(369 2113)">
<g id="icon-crm3">
<use xlink:href="#path0_fill" transform="translate(-369 -2113)" fill="#2FC7F7"/>
</g>
</g>
<defs>
<path id="path0_fill" fill-rule="evenodd" d="M 25.3997 0C 26.1259 0 27.8466 0 28.6225 1.12524C 29.08 1.78418 29.1198 2.646 28.7518 3.7002L 26.3347 10.5635C 26.2253 10.8574 25.9568 11.0398 25.6683 11.0398C 25.5887 11.0398 25.5092 11.0298 25.4296 10.9993C 25.0616 10.8574 24.8726 10.4519 25.0019 10.0767L 27.4189 3.21362C 27.5582 2.80811 27.6776 2.26074 27.4687 1.95654C 27.1205 1.43945 25.8275 1.43945 25.3997 1.43945L 3.56659 1.43945C 2.58185 1.43945 1.806 1.68286 1.53745 2.06812C 1.36835 2.31128 1.36835 2.69653 1.54739 3.21362L 3.9744 10.0767C 4.1037 10.4519 3.9147 10.8674 3.54669 10.9993C 3.17865 11.1311 2.77084 10.9385 2.64154 10.5635L 0.224457 3.7002C -0.123688 2.7168 -0.0639954 1.89575 0.383606 1.23682C 1.11966 0.162109 2.69125 0 3.56659 0L 25.3997 0ZM 18.1187 3.24414C 17.87 2.93994 17.4324 2.8894 17.124 3.14282L 11.1361 8.13037C 10.8377 8.38379 10.7879 8.82983 11.0366 9.14429C 11.1758 9.31641 11.3748 9.40771 11.5837 9.40771C 11.7428 9.40771 11.902 9.35718 12.0313 9.24561L 18.0192 4.25781C 18.3176 4.00439 18.3674 3.54834 18.1187 3.24414ZM 16.945 6.10278L 14.2494 8.35327C 13.951 8.60669 13.9013 9.05273 14.1499 9.36719C 14.2892 9.53931 14.4881 9.63062 14.697 9.63062C 14.8562 9.63062 15.0153 9.58008 15.1446 9.46851L 17.8402 7.21802C 18.1386 6.96436 18.1883 6.51831 17.9397 6.2041C 17.691 5.88989 17.2434 5.84937 16.945 6.10278ZM 10.957 5.55542L 13.6526 3.30469C 13.9609 3.06152 14.3986 3.10205 14.6473 3.40625C 14.8959 3.72046 14.8462 4.1665 14.5478 4.41992L 11.8522 6.67041C 11.7229 6.78198 11.5638 6.83276 11.4046 6.83276C 11.1957 6.83276 10.9968 6.74146 10.8575 6.56909C 10.6089 6.25488 10.6586 5.80884 10.957 5.55542ZM 22.6445 14.0508C 22.2566 14.0508 21.9383 14.3752 21.9383 14.7705L 21.9383 18.5823L 7.03799 18.5823L 7.03799 14.7705C 7.03799 14.3752 6.7197 14.0508 6.33176 14.0508C 5.94385 14.0508 5.62555 14.3752 5.62555 14.7705L 5.62555 19.292C 5.62555 19.6873 5.94385 20.0117 6.33176 20.0117L 22.6445 20.0117C 23.0324 20.0117 23.3507 19.6873 23.3507 19.292L 23.3507 14.7705C 23.3408 14.3752 23.0324 14.0508 22.6445 14.0508ZM 11.9915 20.5691L 16.9848 20.5691C 17.4722 20.5691 17.87 20.9746 17.87 21.4714L 17.87 24.6343C 17.87 25.1311 17.4722 25.5366 16.9848 25.5366L 11.9915 25.5366C 11.5041 25.5366 11.1062 25.1311 11.1062 24.6343L 11.1062 21.4714C 11.1062 20.9746 11.5041 20.5691 11.9915 20.5691ZM 16.4576 24.0869L 12.5187 24.0869L 12.5187 21.9985L 16.4576 21.9985L 16.4576 24.0869ZM 4.5712 11.8406L 24.3553 11.8406C 25.4992 11.8406 26.4243 12.7834 26.4243 13.9492L 26.4243 25.0195C 26.4243 26.6616 25.1113 28 23.4999 28L 5.4664 28C 3.85504 28 2.54205 26.6616 2.54205 25.0195L 2.54205 13.9087C 2.54205 12.7632 3.45715 11.8406 4.5712 11.8406ZM 25.0118 25.0093C 25.0118 25.8608 24.3354 26.5503 23.4999 26.5503L 5.4664 26.5503C 4.63089 26.5503 3.9545 25.8608 3.9545 25.0093L 3.9545 13.8984C 3.9545 13.554 4.233 13.27 4.5712 13.27L 24.3553 13.27C 24.7234 13.27 25.0118 13.5742 25.0118 13.9392L 25.0118 25.0093Z"/>
</defs>
</svg>
