<svg width="18" height="18" viewBox="0 0 18 18" version="1.1" xmlns="http://www.w3.org/2000/svg" xmlns:xlink="http://www.w3.org/1999/xlink">
<title>icon-bullit</title>
<desc>Created using Figma</desc>
<g id="Canvas" transform="translate(405 -812)">
<g id="icon-bullit">
<g id="Oval 2">
<use xlink:href="#path0_stroke" transform="matrix(0.707107 0.707107 -0.707107 0.707107 -396.272 812.243)" fill="url(#paint0_linear)"/>
</g>
</g>
</g>
<defs>
<linearGradient id="paint0_linear" x1="0" y1="0" x2="1" y2="0" gradientUnits="userSpaceOnUse" gradientTransform="matrix(0 12 -12 0 6 0)">
<stop offset="0" stop-color="#2FC7F7"/>
<stop offset="1" stop-color="#BEE818"/>
</linearGradient>
<path id="path0_stroke" d="M 6 12.5C 9.58985 12.5 12.5 9.58985 12.5 6L 11.5 6C 11.5 9.03757 9.03757 11.5 6 11.5L 6 12.5ZM 12.5 6C 12.5 2.41015 9.58985 -0.5 6 -0.5L 6 0.5C 9.03757 0.5 11.5 2.96243 11.5 6L 12.5 6ZM 6 -0.5C 2.41015 -0.5 -0.5 2.41015 -0.5 6L 0.5 6C 0.5 2.96243 2.96243 0.5 6 0.5L 6 -0.5ZM -0.5 6C -0.5 9.58985 2.41015 12.5 6 12.5L 6 11.5C 2.96243 11.5 0.5 9.03757 0.5 6L -0.5 6Z"/>
</defs>
</svg>
