<svg width="31" height="28" viewBox="0 0 31 28" version="1.1" xmlns="http://www.w3.org/2000/svg" xmlns:xlink="http://www.w3.org/1999/xlink">
<title>icon-crm3</title>
<desc>Created using Figma</desc>
<g id="Canvas" transform="translate(669 2112)">
<g id="icon-crm3">
<use xlink:href="#path0_fill" transform="translate(-669 -2112)" fill="#2FC7F7"/>
</g>
</g>
<defs>
<path id="path0_fill" fill-rule="evenodd" d="M 23.9728 12.3335C 23.9828 12.5808 23.9927 12.8379 23.9927 13.0852C 23.9927 17.0315 22.0234 20.5227 19.0342 22.6887L 20.3738 27.0999C 20.4838 27.4658 20.2739 27.8616 19.894 27.9702C 19.834 27.99 19.764 28 19.6941 28C 19.3842 28 19.1042 27.8022 19.0143 27.4956L 17.7946 23.4702C 16.2651 24.301 14.5356 24.8054 12.7062 24.9141L 12.7062 27.2878C 12.7062 27.6736 12.3863 27.99 11.9964 27.99C 11.6065 27.99 11.2866 27.6736 11.2866 27.2878L 11.2866 24.9141C 9.46716 24.8054 7.74768 24.3108 6.22815 23.48L 5.01849 27.4856C 4.92853 27.7922 4.64862 27.99 4.33868 27.99C 4.31696 27.99 4.29395 27.9888 4.27008 27.9863C 4.22803 27.9817 4.18341 27.9731 4.13873 27.9604C 3.75885 27.8516 3.54895 27.4658 3.65887 27.0901L 4.98853 22.6987C 1.97943 20.5327 0 17.0315 0 13.0752C 0 6.76514 5.00848 1.60229 11.2966 1.23633L 11.2966 0.702148C 11.2966 0.316406 11.6165 0 12.0064 0C 12.3962 0 12.7162 0.316406 12.7162 0.702148L 12.7162 1.2561C 16.705 1.49341 20.3738 3.68921 22.3932 7.14087C 22.5832 7.47729 22.4732 7.90259 22.1333 8.10034C 21.7935 8.28833 21.3636 8.17944 21.1636 7.84326C 19.2742 4.6189 15.7653 2.61108 11.9964 2.61108C 6.15814 2.61108 1.40955 7.30908 1.40955 13.0852C 1.40955 18.8611 6.15814 23.5591 11.9964 23.5591C 17.8346 23.5591 22.5832 18.8611 22.5832 13.0852C 22.5832 12.8577 22.5732 12.6401 22.5632 12.4224C 22.5332 12.0366 22.8331 11.7004 23.223 11.6807C 23.5929 11.6511 23.9528 11.9478 23.9728 12.3335ZM 17.4847 9.7124C 17.1748 9.94971 16.725 9.90039 16.485 9.59375C 15.3954 8.21899 13.7559 7.42773 11.9964 7.41772C 8.83734 7.41772 6.27808 9.94971 6.27808 13.0752C 6.27808 16.2004 8.84735 18.7324 11.9964 18.7324C 14.9555 18.7324 17.4547 16.4578 17.6946 13.5498C 17.7247 13.1641 18.0646 12.8674 18.4544 12.907C 18.8443 12.9368 19.1342 13.2729 19.1042 13.6587C 18.8043 17.2786 15.6852 20.127 11.9964 20.127C 8.06757 20.127 4.86853 16.9622 4.86853 13.0752C 4.86853 9.18823 8.06757 6.02319 11.9964 6.02319C 14.1957 6.02319 16.2451 7.01221 17.6047 8.72339C 17.8446 9.02979 17.7946 9.4751 17.4847 9.7124ZM 12.1663 11.6116C 12.5562 11.6116 12.8761 11.2949 12.8761 10.9092C 12.8761 10.5234 12.5562 10.207 12.1663 10.207C 10.5668 10.207 9.26721 11.4927 9.26721 13.0752C 9.26721 14.6577 10.5668 15.9436 12.1663 15.9436C 12.6162 15.9436 13.0461 15.8447 13.4459 15.6467C 13.7958 15.4788 13.9458 15.0535 13.7659 14.7073C 13.5859 14.3611 13.166 14.2126 12.8162 14.3906C 12.6062 14.4895 12.3962 14.5391 12.1663 14.5391C 11.3466 14.5391 10.6768 13.8765 10.6768 13.0654C 10.6768 12.2544 11.3466 11.6116 12.1663 11.6116ZM 30.0909 6.97266C 30.4608 6.854 30.8607 7.07178 30.9706 7.4375C 31.0806 7.80347 30.8707 8.19922 30.5208 8.31787L 30.0109 8.46631L 30.3708 8.8125C 30.6508 9.07935 30.6508 9.52441 30.3808 9.80151C 30.2408 9.93994 30.0509 10.009 29.871 10.009C 29.691 10.009 29.5111 9.93994 29.3712 9.81128L 28.4614 8.92114L 28.0316 9.0498L 28.5014 9.50464C 28.7813 9.77173 28.7813 10.2168 28.5114 10.4937C 28.3715 10.6323 28.1815 10.7014 28.0015 10.7014C 27.8216 10.7014 27.6417 10.6323 27.5017 10.5037L 26.482 9.51465L 26.0121 9.65308L 26.542 10.1675C 26.8219 10.4343 26.8219 10.8794 26.552 11.1565C 26.4606 11.2468 26.3479 11.3076 26.2305 11.3391C 26.1682 11.3557 26.1046 11.364 26.0421 11.364C 25.8622 11.364 25.6823 11.2949 25.5423 11.1663L 24.4526 10.1082L 12.2363 13.7478C 12.1763 13.7676 12.1063 13.7773 12.0364 13.7773C 11.7264 13.7773 11.4465 13.5896 11.3566 13.283C 11.2366 12.917 11.4465 12.5212 11.8264 12.4126L 24.0627 8.76294L 24.3826 7.2002C 24.4626 6.82446 24.8425 6.57715 25.2224 6.65625C 25.6023 6.73535 25.8522 7.11133 25.7722 7.48706L 25.6023 8.30786L 26.0822 8.15967L 26.382 6.70581C 26.462 6.32983 26.8419 6.08252 27.2218 6.16162C 27.6017 6.24097 27.8516 6.6167 27.7716 6.99243L 27.6216 7.70459L 28.0615 7.57617L 28.3314 6.28052C 28.4114 5.90454 28.7913 5.65723 29.1712 5.73633C 29.5511 5.81567 29.801 6.19141 29.721 6.56714L 29.6111 7.11133L 30.0909 6.97266Z"/>
</defs>
</svg>
